# Blender 5.0.0
# www.blender.org
o FondIle
v -2.083333 0.000000 0.500000
v 2.083333 0.000000 0.500000
v -2.083333 0.000000 -0.500000
v 2.083333 0.000000 -0.500000
vn -0.0000 1.0000 -0.0000
vt 0.000000 0.000000
vt 1.000000 0.000000
vt 1.000000 1.000000
vt 0.000000 1.000000
s 0
f 1/1/1 2/2/1 4/3/1 3/4/1

TRANSFORM -23.42357635498047 -2.0477541511354502e-06 1.0296260101027438e-13 -2.6187729835510254 0.0 -1.0238770755677251e-06 -26.94388771057129 3.426027774810791 2.0477541511354502e-06 -23.42357635498047 1.1777547115343623e-06 36.26190185546875 0.0 0.0 0.0 1.0
