# Blender 5.0.0
# www.blender.org
o Minutes
v -0.274261 -0.000410 0.438430
v 0.274202 -0.000410 0.438430
v -0.114880 -0.000432 -5.661108
v 0.114826 -0.000432 -5.661108
vn -0.0000 1.0000 -0.0000
vt 0.000000 0.000000
vt 1.000000 0.000000
vt 1.000000 1.000000
vt 0.000000 1.000000
s 0
f 1/1/1 2/2/1 4/3/1 3/4/1

TRANSFORM 0.021451767534017563 -1.4526858604924087e-09 0.01924140565097332 0.0 0.01924140565097332 1.6195633723015135e-09 -0.021451767534017563 0.0 4.283014577536184e-24 0.028816835954785347 2.175610580579246e-09 0.00408172607421875 0.0 0.0 0.0 1.0
