# Blender 5.0.0
# www.blender.org
o TitreBlackdrop
v -1.000000 0.000000 1.000000
v 1.000000 0.000000 1.000000
v -1.000000 0.000000 -1.000000
v 1.000000 0.000000 -1.000000
vn -0.0000 1.0000 -0.0000
vt 0.000000 0.000000
vt 1.000000 0.000000
vt 1.000000 1.000000
vt 0.000000 1.000000
s 0
f 1/1/1 2/2/1 4/3/1 3/4/1

TRANSFORM 16.703643798828125 0.11595065146684647 0.05292406678199768 -0.26654574275016785 -0.0009811616037040949 3.7408998012542725 -8.107419967651367 -53.9703254699707 -0.23846368491649628 8.10659122467041 3.740525007247925 -11.371681213378906 0.0 0.0 0.0 1.0
